name C:\Users\u0101727\Documents\MyRepositories\paper-ad\trackingsimulations_3d\Results\TrackSim\IK_c7.mot
datacolumns 32
datarows 13
range 3.45000000 3.64200000
endheader
time	pelvis_tilt	pelvis_list	pelvis_rotation	pelvis_tx	pelvis_ty	pelvis_tz	hip_flexion_l	hip_adduction_l	hip_rotation_l	hip_flexion_r	hip_adduction_r	hip_rotation_r	knee_angle_l	knee_angle_r	ankle_angle_l	ankle_angle_r	subtalar_angle_l	subtalar_angle_r	lumbar_extension	lumbar_bending	lumbar_rotation	arm_flex_l	arm_add_l	arm_rot_l	arm_flex_r	arm_add_r	arm_rot_r	elbow_flex_l	elbow_flex_r	pro_sup_l	pro_sup_r	
          3.45000000	         -2.16754662	          4.38705219	          4.40485468	         -0.50810236	          0.94265124	         -0.23003088	         15.04512593	          9.18453881	          3.45838527	         13.63236683	         -1.82240735	         -2.18345925	        -22.13415384	        -65.08542466	          5.23138062	        -12.89132797	          5.74092836	        -13.57065227	         -4.51987279	         -4.06826937	         -3.34439187	         -1.83236379	        -15.69981108	         17.87109368	         -4.80718931	        -16.90979325	         12.14182585	         21.28691558	         23.55066151	         86.51662706	         86.51662706	
          3.46600000	         -2.19599272	          4.17078966	          4.34713563	         -0.48979852	          0.94553925	         -0.23059139	         13.64827803	          8.93586815	          3.80423661	         16.81608158	         -1.90151212	         -2.03597026	        -21.98721899	        -66.34776448	          6.87922788	        -10.75590375	          5.94356222	        -12.83866315	         -4.69682251	         -3.91853020	         -3.83180492	         -1.63266393	        -15.90513624	         17.29365379	         -5.00442179	        -16.82606344	         12.39631068	         22.62825032	         23.04925617	         86.51662706	         86.51662706	
          3.48200000	         -2.17252654	          3.88628910	          4.28346274	         -0.47140484	          0.94821891	         -0.23109067	         12.13475064	          8.59733207	          4.12809670	         19.72186634	         -1.90259069	         -1.95397224	        -21.64452122	        -66.62813929	          8.04741042	         -8.86131796	          6.01485998	        -11.88659281	         -4.88982470	         -3.66514677	         -4.29479823	         -1.42326976	        -16.08831177	         16.78534722	         -5.27459996	        -16.76355698	         12.44532556	         23.94218576	         22.62522411	         86.51662706	         86.51662706	
          3.49800000	         -2.11607915	          3.51956958	          4.32472256	         -0.45290188	          0.95054980	         -0.23170103	         10.56323320	          8.20120670	          4.56441839	         22.29664087	         -1.83488825	         -2.03797866	        -21.19034133	        -65.92105197	          8.76739163	         -7.15450308	          5.85534288	        -10.90033465	         -5.08564439	         -3.28698613	         -4.82734396	         -1.19921003	        -16.25354055	         16.38351919	         -5.63913434	        -16.72122777	         12.20061326	         25.21741577	         22.32686499	         86.51662706	         86.51662706	
          3.51400000	         -2.03751347	          3.10601305	          4.43837888	         -0.43426479	          0.95241870	         -0.23235162	          8.94942507	          7.76092157	          5.05875312	         24.52811541	         -1.73938540	         -2.26187790	        -20.66233024	        -64.28034001	          9.22190486	         -5.57710178	          5.56915426	        -10.21983471	         -5.27653535	         -2.83393760	         -5.39061943	         -0.96570337	        -16.42060650	         16.07934914	         -6.07330625	        -16.68308931	         11.70149394	         26.46045359	         22.11743764	         86.51662706	         86.51662706	
          3.53000000	         -1.94092504	          2.68617488	          4.58030885	         -0.41547342	          0.95374292	         -0.23294391	          7.29562186	          7.28673336	          5.51979479	         26.40878850	         -1.64613170	         -2.56972072	        -20.08739587	        -61.77200183	          9.59496521	         -3.99313307	          5.30372828	         -9.92027938	         -5.46357189	         -2.36381052	         -5.94238523	         -0.72885871	        -16.60597605	         15.84760997	         -6.53301563	        -16.63226502	         11.04627982	         27.66884442	         21.92998131	         86.51662706	         86.51662706	
          3.54600000	         -1.82769742	          2.30116689	          4.72390815	         -0.39649300	          0.95447545	         -0.23342472	          5.58786454	          6.80129349	          5.88477076	         27.92298019	         -1.58506387	         -2.91963965	        -19.45926658	        -58.47043311	          9.97901521	         -2.35813477	          5.16271144	        -10.01333773	         -5.64991133	         -1.93008090	         -6.46343366	         -0.49510736	        -16.81536618	         15.66961769	         -6.98141010	        -16.55761799	         10.33230981	         28.82057442	         21.71090049	         86.51662706	         86.51662706	
          3.56200000	         -1.69791807	          1.97863838	          4.86700796	         -0.37729787	          0.95461083	         -0.23379953	          3.81376734	          6.32964129	          6.14522493	         29.06698436	         -1.58422074	         -3.29993840	        -18.76730463	        -54.47372587	         10.39223670	         -1.19881339	          5.18099641	        -10.32205270	         -5.84063891	         -1.56462372	         -6.95824432	         -0.26532437	        -17.04262870	         15.53946229	         -7.39289205	        -16.45622840	          9.63371273	         29.88058067	         21.43016246	         86.51662706	         86.51662706	
          3.57800000	         -1.55810306	          1.73198287	          5.02069883	         -0.35788113	          0.95416704	         -0.23410724	          1.98151327	          5.89513509	          6.33466427	         29.85967941	         -1.66656716	         -3.72590026	        -18.01867997	        -49.89468289	         10.81487346	         -0.87812219	          5.33276345	        -10.36787979	         -6.03352509	         -1.27988519	         -7.43773139	         -0.03392145	        -17.27317652	         15.46124725	         -7.75242308	        -16.33153793	          9.00433649	         30.80994926	         21.07316615	         86.51662706	         86.51662706	
          3.59400000	         -1.41869420	          1.57081661	          5.18202692	         -0.33824584	          0.95317386	         -0.23436053	          0.11488176	          5.52202783	          6.50171940	         30.34116999	         -1.83234650	         -4.21773514	        -17.23852610	        -44.85856993	         11.21291033	         -1.22311672	          5.55308192	        -10.06628493	         -6.22121604	         -1.08568493	         -7.89147873	          0.20957979	        -17.49030692	         15.44184882	         -8.05220247	        -16.18826373	          8.48599121	         31.57118323	         20.63109886	         86.51662706	         86.51662706	
          3.61000000	         -1.28940447	          1.48978904	          5.34271048	         -0.31839198	          0.95167530	         -0.23454932	         -1.75331902	          5.21756501	          6.69532980	         30.56049914	         -2.05441069	         -4.78436848	        -16.46856494	        -39.48983461	         11.56003482	         -1.57388687	          5.77584422	         -9.30704464	         -6.39413837	         -0.97647693	         -8.29603774	          0.47727037	        -17.67644177	         15.49028621	         -8.29013154	        -16.03201399	          8.10935665	         32.13279241	         20.09381274	         86.51662706	         86.51662706	
          3.62600000	         -1.17722711	          1.47884335	          5.51587210	         -0.29830992	          0.94974157	         -0.23468771	         -3.58698283	          4.98111296	          6.97350965	         30.55660161	         -2.32187410	         -5.47737033	        -15.76119700	        -33.88151627	         11.83074536	         -1.35111015	          5.94019138	         -8.02329759	         -6.54313693	         -0.94022421	         -8.64530596	          0.77933863	        -17.81661398	         15.61779215	         -8.47066709	        -15.86666114	          7.89738029	         32.46970877	         19.45175016	         86.51662706	         86.51662706	
          3.64200000	         -1.08549141	          1.52198529	          5.71647277	         -0.27797965	          0.94746355	         -0.23478145	         -5.35407473	          4.79579431	          7.33595843	         30.37854798	         -2.62702233	         -6.35516474	        -15.16577524	        -28.18041468	         12.01034066	         -0.76143701	          6.03890744	         -6.18228162	         -6.66084463	         -0.95811678	         -8.94383746	          1.11508956	        -17.90243777	         15.83410435	         -8.59887137	        -15.69456173	          7.86442829	         32.56902804	         18.70334418	         86.51662706	         86.51662706	
